PathFileType	4	(X/Y/Z)	Patient4_TMGait_0pt3_03_right_05.trc.trc
DataRate	CameraRate	NumFrames	NumMarkers	Units	OrigDataRate	OrigDataStartFrame	OrigNumFrames
51.851851851852	51.851851851852	6	33	mm	51.851851851852	106	       141
Frame#	Time	Sacral			L.Shoulder			Chest			R.Shoulder			Neck			R.ASIS			L.ASIS			R.Thigh.Superior			R.Thigh.Lateral			R.Thigh.Inferior			R.Patella			L.Thigh.Superior			L.Thigh.Lateral			L.Thigh.Inferior			L.Patella			L.Shank.Superior			L.Shank.Lateral			L.Shank.Inferior			R.Shank.Superior			R.Shank.Lateral			R.Shank.Inferior			R.Heel			R.Midfoot.Superior			R.Midfoot.Lateral			R.Toe			L.Heel			L.Midfoot.Lateral			L.Midfoot.Superior			L.Toe			L.Elbow			L.Wrist			R.Elbow			R.Wrist			
		X1	Y1	Z1	X2	Y2	Z2	X3	Y3	Z3	X4	Y4	Z4	X5	Y5	Z5	X6	Y6	Z6	X7	Y7	Z7	X8	Y8	Z8	X9	Y9	Z9	X10	Y10	Z10	X11	Y11	Z11	X12	Y12	Z12	X13	Y13	Z13	X14	Y14	Z14	X15	Y15	Z15	X16	Y16	Z16	X17	Y17	Z17	X18	Y18	Z18	X19	Y19	Z19	X20	Y20	Z20	X21	Y21	Z21	X22	Y22	Z22	X23	Y23	Z23	X24	Y24	Z24	X25	Y25	Z25	X26	Y26	Z26	X27	Y27	Z27	X28	Y28	Z28	X29	Y29	Z29	X30	Y30	Z30	X31	Y31	Z31	X32	Y32	Z32	X33	Y33	Z33	

106	11.375000000000	751.629326932733	1001.435347463713	409.121054559461	957.840461525792	1421.947083538722	228.392006244825	1054.214977801316	1347.180294692288	390.271027084180	973.183500043048	1422.430770022086	563.979687612013	935.341717193122	1482.525151955781	388.091105814246	978.101341272361	927.682005906351	527.225238272211	967.909609045151	946.682328734593	254.610492718525	1037.689633293730	739.142733203720	497.765814161333	978.918450506754	626.244533892405	570.963633332877	1058.618446197949	572.807532871743	488.562405753588	1058.369892361696	459.844234656769	515.419811381863	1023.927768252095	740.198555612307	301.714739620210	946.111842874328	614.431690490055	250.014665142875	1031.277446819387	545.830467426124	325.097953388234	1034.118573636978	470.778161544406	337.613706605053	991.747127674081	398.297871406983	332.119399595304	887.363183337829	298.011422142652	280.490700362056	910.686755546455	184.052179829192	358.015660110279	972.056703684090	397.885308020127	529.475490335676	844.206859927023	378.958975465729	588.394446876040	818.930013422033	267.045057114446	549.529840555130	611.267341387191	227.658377702537	516.067247388224	770.320061463883	154.662898222877	576.562479879756	659.110439286057	173.287478077930	601.146966377435	818.158442760759	40.325953457327	621.576209914864	757.407666787040	42.001229755643	395.191188232164	834.726262448962	37.383279529313	318.544393629501	918.953288103889	95.799476134110	349.222882441742	1046.447468060438	39.133087146448	324.010990805621	1007.230265425875	1082.074663019804	91.060340925057	1169.130615583144	877.125991873220	112.783088159708	947.101008993970	1068.961808916457	673.598814097233	1025.768174675940	823.177278917526	701.182148801475	
107	11.394285714286	750.111161348117	1001.856707761450	405.766123366955	960.071032734108	1422.914045585183	228.668044605573	1053.406429071462	1347.598026973805	391.956528314578	969.156690485115	1421.990368300836	564.565369190079	935.042180134110	1482.995156079974	388.316582311157	975.446224194436	928.700036500721	526.595551911757	968.345215513624	947.012910308842	253.730901813899	1039.557719102304	743.618335731669	495.406934103034	984.745815011684	629.295655885107	568.928704744129	1065.303013527800	577.954980578837	485.786809995730	1068.491054763406	464.919380050988	512.666747842635	1022.421921161641	739.303937811423	300.489422321571	943.349141242518	614.238870773820	248.906874043360	1027.602044798329	545.004633540668	324.307830674080	1029.791779065666	470.155123449477	337.007237231716	987.124449919021	397.915724731006	331.372260753751	882.406916026187	297.938682382065	279.836567819678	905.276684573955	183.969275698881	357.580462625285	983.618404081088	400.931611318498	526.868677801432	856.053458321370	378.913074722245	585.152013016431	833.975396711664	266.416415438198	546.383624360137	627.549833326104	219.754379255044	512.038795356156	788.920742318836	154.337486619201	573.455053578298	677.343104039512	168.549367103620	597.840564359335	841.112608597437	42.365540706517	619.830781877899	751.560175204506	42.219935030763	395.009305970713	828.938362213365	37.440947141520	318.393856451549	913.200796696249	95.783017600509	349.021584640165	1040.640416329728	39.075467292291	323.938443887567	1015.979352223326	1085.109256314917	89.517646111543	1188.083960438309	888.740848883580	112.824752750264	927.642372637864	1069.588138910090	672.032380536044	987.465910728806	818.353034448619	700.575459589767	
108	11.413571428571	748.720811309794	1002.842150719791	402.574097986469	962.497451640058	1424.276508290999	229.144600214281	1052.617285778363	1348.515409026041	393.914540184238	965.000040416815	1422.275577199726	565.177647467593	934.768394761138	1483.927892925747	388.663861692983	972.705937945652	930.218418439038	526.435747170859	969.000789692383	947.777548913480	253.358796124029	1040.647437749425	748.359987043149	493.793791254201	989.295231601296	632.845973052926	567.572269305520	1070.531585244890	583.387539801335	483.851779321959	1077.161203406843	470.741620442449	510.722653920141	1020.658916923969	738.630019713401	299.729144221739	940.156117776748	614.442032445274	248.012495159267	1023.264904848856	544.426397956072	323.730555695588	1024.693373933197	469.871905587259	336.560621180019	981.890755810491	397.914176919148	330.714377193858	877.048260656364	298.081083915646	279.207300855750	899.673527976473	184.105440522010	357.136418478235	994.528131395791	404.343650591260	525.023430714135	868.004157071518	377.695204347337	582.962969192510	850.347835944586	264.688848567044	544.031042384339	646.179752768735	208.345847387496	509.295506845477	810.268859126673	152.530783931612	570.864541380269	698.649458919112	160.775939919817	595.441346264967	868.241658373978	44.207031722867	617.970395904130	745.711766261355	42.534176372421	394.786644286019	823.158686461209	37.553067497641	318.219708921217	907.470976244778	95.802866005494	348.780060745228	1034.836247611901	39.017103203242	323.865378497338	1024.116017025038	1088.588582581647	88.214192822974	1206.328716792752	901.679600437895	113.210381299869	908.118350349466	1071.738766135413	670.526399049854	950.543691212950	816.784220313165	699.349859483424	
109	11.432857142857	747.473286253255	1004.360514567310	399.554798627513	965.094731898238	1425.981181198952	229.781115992692	1051.844970982418	1349.916027203775	396.102782258885	960.751139182026	1423.309353539297	565.764405892496	934.507365604623	1485.300988206808	389.071520714360	969.886533891262	932.201484003648	526.751597476206	969.874697918185	948.949756898818	253.512929327860	1040.948500359467	753.199926231099	492.990823941713	992.427887894602	636.714656184247	566.922100151171	1074.210629974230	588.881900525132	482.837884623594	1084.217979455981	477.121679660984	509.666398566689	1018.637797305308	738.172639282007	299.508719796254	936.585306738523	615.036217723801	247.354962355506	1018.283441905713	544.101674564197	323.430507054848	1018.840633733754	469.930906196323	336.328371909702	976.067455007619	398.292324878624	330.186661745334	871.319051523188	298.438817830750	278.619176704548	893.886515866289	184.459601077246	356.699737138610	1004.629552352995	408.033457888661	524.004555463384	880.021566603951	375.345702741072	581.895014328832	867.948350728369	262.021214720092	542.563025947453	667.301733666871	193.968811236819	507.886861598260	834.173836856867	149.441433193689	568.888937790361	722.991913336361	150.417203839616	593.995396199868	899.033437141611	45.938900018875	616.085029466592	739.867993142404	42.950247331801	394.518012002921	817.389348026768	37.720665948714	318.022256440845	901.766963393710	95.862320592902	348.502780149833	1029.037193194511	38.957368620417	323.795075046828	1031.742652106151	1092.428399279184	87.151571518014	1223.794741079639	915.818531866197	113.914168476517	888.759242543302	1075.406961210466	669.058064514506	915.508781973497	818.157408337058	697.621456190599	
110	11.452142857143	746.382016894542	1006.330912828095	396.729937527363	967.815582023530	1427.941969871979	230.548203885266	1051.082874746109	1351.739700155362	398.476690965572	956.461324834517	1425.046806702725	566.293643792198	934.241462208077	1487.049733219908	389.496063035385	967.004311248647	934.569384261622	527.533302572611	970.950416897758	950.463612730116	254.190144058765	1040.472819640582	757.943893550434	493.034608035478	994.055503746997	640.690945309758	566.984458839371	1076.303979982121	594.199981443488	482.792529580160	1089.556590866890	483.835073654645	509.528568993164	1016.368516122597	737.906688198751	299.881065083880	932.712668889874	615.984772051277	246.944076043387	1012.717515900237	544.012806274945	323.448236539040	1012.298883491358	470.303628865774	336.341521054063	969.713737369853	399.016617708140	329.816365538940	865.271518476888	298.991934759876	278.085587371876	887.936052590619	185.011290826170	356.286149575574	1013.788844474619	411.900674619372	523.830984074224	892.061991224271	371.986954283359	581.953619147781	886.602321795647	258.656748755936	542.014561351124	690.917395001986	177.350748447454	507.783543828198	860.314587140065	145.390999543541	567.569368469834	750.185568337810	138.104133162736	593.478287768845	932.804270088719	47.742199862409	614.230489825471	734.033675700455	43.462213940371	394.203782965049	811.630724796295	37.937836597352	317.805274742063	896.088348721707	95.960321349613	348.198143589809	1023.244209272343	38.896220676066	323.730964257244	1038.970895935217	1096.530268949595	86.342063626438	1240.431205617027	930.995672656790	114.917007486589	869.813190073472	1080.482086965674	667.602486208975	882.765854363594	822.041324847944	695.526614625268	
111	11.471428571429	745.457236845640	1008.626865417600	394.133119966115	970.594366661672	1430.045236653604	231.429031132708	1050.321930145126	1353.884865158798	400.992461993805	952.192713933801	1427.377603328735	566.756325328598	933.950683284931	1489.070439782485	389.915250715768	964.087598892122	937.201440024898	528.756005104012	972.196687527186	952.217887951882	255.365965864328	1039.255662380527	762.385593841552	493.932527162925	994.156443919029	644.551621020603	567.746999943544	1076.840896196670	599.107746660870	483.725890233332	1093.138509354269	490.636165267636	510.290269313470	1013.873192076596	737.786200823273	300.865299716628	928.627722297345	617.220123360940	246.773415158064	1006.663287323848	544.116696915932	323.791701858452	1005.174729009407	470.930472523341	336.600763047166	962.920677767780	400.021179401566	329.612340924754	858.971599462187	299.699609774380	277.615396450614	881.850856699311	185.720101653707	355.909539483230	1021.903532362971	415.833673337747	524.474796714893	904.067465476344	367.807337763428	583.087674415353	906.052349604867	254.890642056730	542.363190783771	716.838307024703	159.352711357004	508.894026372322	888.238005861797	140.777175463061	566.890574831061	779.870975481114	124.579730996058	593.802669911875	968.727124770313	49.831707106628	612.408359027845	728.211364884776	44.048389579721	393.851453587969	805.880749684797	38.190696094807	317.576317046552	890.429766578264	96.090516331126	347.878541070998	1017.456364151026	38.834644734368	323.676426755987	1045.911350850901	1100.787125565889	85.804626187406	1256.205152676420	947.019593109360	116.205803464085	851.533039518385	1086.752086735467	666.139387744883	852.612700832192	827.915896675235	693.209650734295	
